<?xml version="1.0" encoding="UTF-8" standalone="no"?>
<svg
   xmlns:dc="http://purl.org/dc/elements/1.1/"
   xmlns:cc="http://creativecommons.org/ns#"
   xmlns:rdf="http://www.w3.org/1999/02/22-rdf-syntax-ns#"
   xmlns:svg="http://www.w3.org/2000/svg"
   xmlns="http://www.w3.org/2000/svg"
   xmlns:xlink="http://www.w3.org/1999/xlink"
   xmlns:sodipodi="http://sodipodi.sourceforge.net/DTD/sodipodi-0.dtd"
   xmlns:inkscape="http://www.inkscape.org/namespaces/inkscape"
   inkscape:version="1.0 (4035a4fb49, 2020-05-01)"
   sodipodi:docname="backup.svg"
   id="svg59601"
   version="1.1"
   viewBox="0 0 125.74645 270.95838"
   height="1024.0947"
   width="475.26218">
  <defs
     id="defs59595">
    <marker
       inkscape:stockid="Arrow2Mend"
       orient="auto"
       refY="0"
       refX="0"
       id="marker66062"
       style="overflow:visible"
       inkscape:isstock="true">
      <path
         id="path66060"
         style="fill:#000000;fill-opacity:1;fill-rule:evenodd;stroke:#000000;stroke-width:0.625;stroke-linejoin:round;stroke-opacity:1"
         d="M 8.7185878,4.0337352 -2.2072895,0.01601326 8.7185884,-4.0017078 c -1.7454984,2.3720609 -1.7354408,5.6174519 -6e-7,8.035443 z"
         transform="scale(-0.6)" />
    </marker>
    <marker
       inkscape:collect="always"
       inkscape:isstock="true"
       style="overflow:visible"
       id="Arrow2Mend"
       refX="0"
       refY="0"
       orient="auto"
       inkscape:stockid="Arrow2Mend">
      <path
         transform="scale(-0.6)"
         d="M 8.7185878,4.0337352 -2.2072895,0.01601326 8.7185884,-4.0017078 c -1.7454984,2.3720609 -1.7354408,5.6174519 -6e-7,8.035443 z"
         style="fill:#000000;fill-opacity:1;fill-rule:evenodd;stroke:#000000;stroke-width:0.625;stroke-linejoin:round;stroke-opacity:1"
         id="path65771" />
    </marker>
    <symbol
       viewBox="0 0 24 24"
       id="ic_account_circle_24px">
      <path
         style="stroke-width:0.264583"
         d="M 3.175,0.52916667 C 1.7145,0.52916667 0.52916667,1.7145 0.52916667,3.175 0.52916667,4.6355 1.7145,5.8208333 3.175,5.8208333 4.6355,5.8208333 5.8208333,4.6355 5.8208333,3.175 5.8208333,1.7145 4.6355,0.52916667 3.175,0.52916667 Z m 0,0.79375003 c 0.4392083,0 0.79375,0.3545416 0.79375,0.79375 0,0.4392083 -0.3545417,0.79375 -0.79375,0.79375 -0.4392083,0 -0.79375,-0.3545417 -0.79375,-0.79375 0,-0.4392084 0.3545417,-0.79375 0.79375,-0.79375 z M 3.175,5.08 A 1.905,1.905 0 0 1 1.5875,4.2280417 C 1.5954375,3.7015208 2.6458333,3.413125 3.175,3.413125 c 0.5265208,0 1.5795625,0.2883958 1.5875,0.8149167 A 1.905,1.905 0 0 1 3.175,5.08 Z"
         id="path61636" />
    </symbol>
    <symbol
       viewBox="0 0 24 24"
       id="ic_account_balance_wallet_24px">
      <path
         style="stroke-width:0.264583"
         d="M 5.55625,4.7625 V 5.0270833 C 5.55625,5.318125 5.318125,5.55625 5.0270833,5.55625 H 1.3229167 A 0.52916667,0.52916667 0 0 1 0.79375,5.0270833 V 1.3229167 A 0.52916667,0.52916667 0 0 1 1.3229167,0.79375 h 3.7041666 c 0.2910417,0 0.5291667,0.238125 0.5291667,0.5291667 V 1.5875 H 3.175 A 0.52916667,0.52916667 0 0 0 2.6458333,2.1166667 V 4.2333333 A 0.52916667,0.52916667 0 0 0 3.175,4.7625 Z M 3.175,4.2333333 H 5.8208333 V 2.1166667 H 3.175 Z M 4.2333333,3.571875 c -0.2196041,0 -0.396875,-0.1772708 -0.396875,-0.396875 0,-0.2196042 0.1772709,-0.396875 0.396875,-0.396875 0.2196042,0 0.396875,0.1772708 0.396875,0.396875 0,0.2196042 -0.1772708,0.396875 -0.396875,0.396875 z"
         id="path61630" />
    </symbol>
    <symbol
       viewBox="0 0 24 24"
       id="ic_folder_open_24px">
      <path
         style="stroke-width:0.264583"
         d="M 5.2916667,1.5875 H 3.175 L 2.6458333,1.0583333 h -1.5875 c -0.29104163,0 -0.5265208,0.238125 -0.5265208,0.5291667 l -0.002646,3.175 c 0,0.2910417 0.238125,0.5291667 0.5291666,0.5291667 h 4.2333334 c 0.2910416,0 0.5291666,-0.238125 0.5291666,-0.5291667 V 2.1166667 C 5.8208333,1.825625 5.5827083,1.5875 5.2916667,1.5875 Z m 0,3.175 H 1.0583333 V 2.1166667 h 4.2333334 z"
         id="path64393" />
    </symbol>
    <symbol
       viewBox="0 0 24 24"
       id="ic_smartphone_24px">
      <path
         style="stroke-width:0.264583"
         d="m 4.4979167,0.26722917 -2.6458334,-0.002646 c -0.2910416,0 -0.5291666,0.238125 -0.5291666,0.52916667 V 5.5562498 c 0,0.2910417 0.238125,0.5291667 0.5291666,0.5291667 h 2.6458334 c 0.2910416,0 0.5291666,-0.238125 0.5291666,-0.5291667 V 0.79374984 c 0,-0.29104167 -0.238125,-0.52652083 -0.5291666,-0.52652067 z m 0,4.75985413 H 1.8520833 V 1.3229167 h 2.6458334 z"
         id="path64574" />
    </symbol>
    <symbol
       viewBox="0 0 24 24"
       id="ic_developer_board_24px">
      <path
         style="stroke-width:0.264583"
         d="M 5.8208333,2.38125 V 1.8520833 H 5.2916667 V 1.3229167 C 5.2916667,1.031875 5.0535417,0.79375 4.7625,0.79375 H 1.0583333 c -0.29104163,0 -0.52916663,0.238125 -0.52916663,0.5291667 v 3.7041666 c 0,0.2910417 0.238125,0.5291667 0.52916663,0.5291667 H 4.7625 c 0.2910417,0 0.5291667,-0.238125 0.5291667,-0.5291667 V 4.4979167 H 5.8208333 V 3.96875 H 5.2916667 V 3.4395833 H 5.8208333 V 2.9104167 H 5.2916667 V 2.38125 Z M 4.7625,5.0270833 H 1.0583333 V 1.3229167 H 4.7625 Z m -3.175,-1.5875 H 2.9104167 V 4.4979167 H 1.5875 Z m 1.5875,-1.5875 h 1.0583333 v 0.79375 H 3.175 Z m -1.5875,0 H 2.9104167 V 3.175 H 1.5875 Z M 3.175,2.9104167 h 1.0583333 v 1.5875 H 3.175 Z"
         id="path64475" />
    </symbol>
    <pattern
       id="pattern64833"
       patternTransform="translate(100,59.999999)"
       height="100"
       width="100"
       patternUnits="userSpaceOnUse">
      <use
         xlink:href="#ic_account_circle_24px"
         style="fill:#000000;stroke:none"
         id="use62724"
         x="0"
         y="0"
         width="100%"
         height="100%"
         transform="matrix(2.1597301,0,0,2.1597301,-10,-103.94826)" />
    </pattern>
    <pattern
       id="pattern64838"
       patternTransform="translate(300,100)"
       height="99.99943"
       width="63.636"
       patternUnits="userSpaceOnUse">
      <use
         xlink:href="#ic_smartphone_24px"
         style="fill:#000000;stroke:none"
         id="use64721"
         x="0"
         y="0"
         width="100%"
         height="100%"
         transform="matrix(1.9633798,0,0,1.9633798,-22.727144,-89.952445)" />
    </pattern>
    <pattern
       id="pattern64843"
       patternTransform="translate(120,240)"
       height="80.000002"
       width="100"
       patternUnits="userSpaceOnUse">
      <use
         xlink:href="#ic_folder_open_24px"
         style="fill:#000000;stroke:none"
         id="use64442"
         x="0"
         y="0"
         width="100%"
         height="100%"
         transform="matrix(2.1597301,0,0,2.1597301,-9.999997,-113.94826)" />
    </pattern>
    <pattern
       id="pattern64848"
       patternTransform="translate(117.22222,650.89489)"
       height="99.999999"
       width="105.55555"
       patternUnits="userSpaceOnUse">
      <use
         xlink:href="#ic_account_balance_wallet_24px"
         style="fill:#000000;stroke:none"
         id="use62746"
         x="0"
         y="0"
         width="100%"
         height="100%"
         transform="matrix(2.3997,0,0,2.3997,-16.666667,-121.05362)" />
    </pattern>
    <pattern
       id="pattern64853"
       patternTransform="translate(276.26245,800.00001)"
       height="99.999999"
       width="111.11111"
       patternUnits="userSpaceOnUse">
      <use
         xlink:href="#ic_developer_board_24px"
         style="fill:#000000;stroke:none"
         id="use64743"
         x="0"
         y="0"
         width="100%"
         height="100%"
         transform="matrix(2.3997,0,0,2.3997,-11.111111,-121.05362)" />
    </pattern>
    <pattern
       id="pattern65576"
       patternTransform="translate(439.99998,240)"
       height="80.000002"
       width="100"
       patternUnits="userSpaceOnUse">
      <use
         xlink:href="#ic_folder_open_24px"
         style="fill:#000000;stroke:none"
         id="use64921"
         x="0"
         y="0"
         width="100%"
         height="100%"
         transform="matrix(2.1597301,0,0,2.1597301,-9.999997,-113.94826)" />
    </pattern>
    <pattern
       id="pattern65581"
       patternTransform="translate(437.22222,650.89489)"
       height="99.999999"
       width="105.55555"
       patternUnits="userSpaceOnUse">
      <use
         xlink:href="#ic_account_balance_wallet_24px"
         style="fill:#000000;stroke:none"
         id="use65564"
         x="0"
         y="0"
         width="100%"
         height="100%"
         transform="matrix(2.3997,0,0,2.3997,-16.666667,-121.05362)" />
    </pattern>
    <marker
       inkscape:stockid="Arrow2Mend"
       orient="auto"
       refY="0"
       refX="0"
       id="Arrow2Mend-9"
       style="overflow:visible"
       inkscape:isstock="true">
      <path
         id="path65771-5"
         style="fill:#000000;fill-opacity:1;fill-rule:evenodd;stroke:#000000;stroke-width:0.625;stroke-linejoin:round;stroke-opacity:1"
         d="M 8.7185878,4.0337352 -2.2072895,0.01601326 8.7185884,-4.0017078 c -1.7454984,2.3720609 -1.7354408,5.6174519 -6e-7,8.035443 z"
         transform="scale(-0.6)" />
    </marker>
  </defs>
  <sodipodi:namedview
     units="px"
     showborder="true"
     fit-margin-bottom="20"
     fit-margin-right="20"
     fit-margin-left="20"
     fit-margin-top="20"
     showgrid="true"
     inkscape:document-rotation="0"
     inkscape:current-layer="layer1"
     inkscape:document-units="mm"
     inkscape:cy="504.48289"
     inkscape:cx="216.36482"
     inkscape:zoom="0.71446409"
     inkscape:pageshadow="2"
     inkscape:pageopacity="0.0"
     borderopacity="1.0"
     bordercolor="#666666"
     pagecolor="#ffffff"
     id="base">
    <inkscape:grid
       originy="29.416661"
       originx="-47.753472"
       id="grid60185"
       type="xygrid" />
  </sodipodi:namedview>
  <metadata
     id="metadata59598">
    <rdf:RDF>
      <cc:Work
         rdf:about="">
        <dc:format>image/svg+xml</dc:format>
        <dc:type
           rdf:resource="http://purl.org/dc/dcmitype/StillImage" />
        <dc:title></dc:title>
      </cc:Work>
    </rdf:RDF>
  </metadata>
  <g
     transform="translate(-25.723379)"
     id="layer1"
     inkscape:groupmode="layer"
     inkscape:label="Capa 1">
    <rect
       id="rect64836"
       y="15.874999"
       x="37.041668"
       height="26.458332"
       width="26.458332"
       style="fill:none;stroke:none;stroke-width:0.264583" />
    <rect
       id="rect64851"
       y="177.50761"
       x="31.015047"
       height="26.458332"
       width="27.928238"
       style="fill:none;stroke:none;stroke-width:0.264583" />
    <rect
       id="rect64846"
       y="68.791664"
       x="31.75"
       height="21.166666"
       width="26.458332"
       style="fill:none;stroke:none;stroke-width:0.264583" />
    <rect
       id="rect64841"
       y="31.75"
       x="79.375"
       height="26.458181"
       width="16.837025"
       style="fill:none;stroke:none;stroke-width:0.264583" />
    <rect
       id="rect64856"
       y="216.95833"
       x="73.094437"
       height="26.458332"
       width="29.398148"
       style="fill:none;stroke:none;stroke-width:0.264583" />
    <rect
       id="rect65579"
       y="68.791664"
       x="116.41666"
       height="21.166666"
       width="26.458332"
       style="fill:none;stroke:none;stroke-width:0.264583" />
    <rect
       id="rect65584"
       y="177.50761"
       x="115.68172"
       height="26.458332"
       width="27.928238"
       style="fill:none;stroke:none;stroke-width:0.264583" />
    <path
       inkscape:connection-end="#path67473"
       inkscape:connection-start="#path67477"
       inkscape:connector-curvature="0"
       inkscape:connector-type="polyline"
       id="path65586"
       d="M 54.859378,71.437503 79.375,51.7423"
       style="display:inline;fill:none;fill-rule:evenodd;stroke:#000000;stroke-width:0.264583px;stroke-linecap:butt;stroke-linejoin:miter;stroke-opacity:1" />
    <path
       inkscape:connection-start="#path67481"
       inkscape:connection-end="#path67473"
       inkscape:connector-curvature="0"
       inkscape:connector-type="polyline"
       id="path65588"
       d="M 117.44712,69.349594 96.212025,51.897756"
       style="display:inline;fill:none;fill-rule:evenodd;stroke:#000000;stroke-width:0.264583px;stroke-linecap:butt;stroke-linejoin:miter;stroke-opacity:1" />
    <path
       inkscape:connection-end="#path67493"
       inkscape:connection-start="#path67485"
       inkscape:connector-curvature="0"
       inkscape:connector-type="polyline"
       id="path65590"
       d="M 57.280257,202.07145 74.16719,217.63169"
       style="display:inline;fill:none;fill-rule:evenodd;stroke:#000000;stroke-width:0.264583px;stroke-linecap:butt;stroke-linejoin:miter;stroke-opacity:1" />
    <path
       inkscape:connection-end="#path67493"
       inkscape:connection-start="#path67489"
       inkscape:connector-curvature="0"
       inkscape:connector-type="polyline"
       id="path65592"
       d="M 116.5341,203.0961 99.464936,219.1858"
       style="display:inline;fill:none;fill-rule:evenodd;stroke:#000000;stroke-width:0.264583px;stroke-linecap:butt;stroke-linejoin:miter;stroke-opacity:1" />
    <text
       id="text65624"
       y="10.583333"
       x="10.583333"
       style="font-size:8.46667px;line-height:5.82083px;font-family:sans-serif;-inkscape-font-specification:'sans-serif, Normal';text-align:center;letter-spacing:0px;word-spacing:0px;writing-mode:lr-tb;text-anchor:middle;fill:none;stroke:#000000;stroke-width:0.264583px;stroke-linecap:butt;stroke-linejoin:miter;stroke-opacity:1"
       xml:space="preserve"><tspan
         style="stroke-width:0.264583px"
         y="10.583333"
         x="10.583333"
         id="tspan65622"
         sodipodi:role="line" /></text>
    <text
       transform="translate(10.583333,-5.2916667)"
       id="text65628"
       y="17.14831"
       x="39.879742"
       style="font-style:normal;font-variant:normal;font-weight:normal;font-stretch:normal;font-size:8.46667px;line-height:8.5px;font-family:sans-serif;-inkscape-font-specification:'sans-serif, Normal';font-variant-ligatures:normal;font-variant-position:normal;font-variant-caps:normal;font-variant-numeric:normal;font-variant-alternates:normal;font-variant-east-asian:normal;font-feature-settings:normal;font-variation-settings:normal;text-indent:0;text-align:center;text-decoration:none;text-decoration-line:none;text-decoration-style:solid;text-decoration-color:#000000;letter-spacing:0px;word-spacing:0px;text-transform:none;writing-mode:lr-tb;direction:ltr;text-orientation:mixed;dominant-baseline:auto;baseline-shift:baseline;text-anchor:middle;white-space:normal;shape-padding:0;shape-margin:0;inline-size:0;opacity:1;vector-effect:none;fill:#000000;fill-opacity:1;stroke:#000000;stroke-width:0.264583px;stroke-linecap:butt;stroke-linejoin:miter;stroke-miterlimit:4;stroke-dasharray:none;stroke-dashoffset:0;stroke-opacity:1;stop-color:#000000;stop-opacity:1"
       xml:space="preserve"><tspan
         style="font-style:normal;font-variant:normal;font-weight:normal;font-stretch:normal;font-size:8.46667px;line-height:8.5px;font-family:sans-serif;-inkscape-font-specification:'sans-serif, Normal';font-variant-ligatures:normal;font-variant-position:normal;font-variant-caps:normal;font-variant-numeric:normal;font-variant-alternates:normal;font-variant-east-asian:normal;font-feature-settings:normal;font-variation-settings:normal;text-indent:0;text-align:center;text-decoration:none;text-decoration-line:none;text-decoration-style:solid;text-decoration-color:#000000;letter-spacing:0px;word-spacing:0px;text-transform:none;writing-mode:lr-tb;direction:ltr;text-orientation:mixed;dominant-baseline:auto;baseline-shift:baseline;text-anchor:middle;white-space:normal;shape-padding:0;shape-margin:0;inline-size:0;vector-effect:none;fill:#000000;fill-opacity:1;stroke:#000000;stroke-width:0.264583px;stroke-linecap:butt;stroke-linejoin:miter;stroke-miterlimit:4;stroke-dasharray:none;stroke-dashoffset:0;stroke-opacity:1;stop-color:#000000;stop-opacity:1"
         y="17.14831"
         x="39.879742"
         id="tspan65626"
         sodipodi:role="line">Alice</tspan></text>
    <text
       transform="translate(0,-2.6458361)"
       id="text65632"
       y="64.512863"
       x="44.770393"
       style="font-style:normal;font-variant:normal;font-weight:normal;font-stretch:normal;font-size:8.46667px;line-height:8.5px;font-family:sans-serif;-inkscape-font-specification:'sans-serif, Normal';font-variant-ligatures:normal;font-variant-position:normal;font-variant-caps:normal;font-variant-numeric:normal;font-variant-alternates:normal;font-variant-east-asian:normal;font-feature-settings:normal;font-variation-settings:normal;text-indent:0;text-align:center;text-decoration:none;text-decoration-line:none;text-decoration-style:solid;text-decoration-color:#000000;letter-spacing:0px;word-spacing:0px;text-transform:none;writing-mode:lr-tb;direction:ltr;text-orientation:mixed;dominant-baseline:auto;baseline-shift:baseline;text-anchor:middle;white-space:normal;shape-padding:0;shape-margin:0;inline-size:0;opacity:1;vector-effect:none;fill:#000000;fill-opacity:1;stroke:#000000;stroke-width:0.264583px;stroke-linecap:butt;stroke-linejoin:miter;stroke-miterlimit:4;stroke-dasharray:none;stroke-dashoffset:0;stroke-opacity:1;stop-color:#000000;stop-opacity:1"
       xml:space="preserve"><tspan
         style="font-style:normal;font-variant:normal;font-weight:normal;font-stretch:normal;font-size:8.46667px;line-height:8.5px;font-family:sans-serif;-inkscape-font-specification:'sans-serif, Normal';font-variant-ligatures:normal;font-variant-position:normal;font-variant-caps:normal;font-variant-numeric:normal;font-variant-alternates:normal;font-variant-east-asian:normal;font-feature-settings:normal;font-variation-settings:normal;text-indent:0;text-align:center;text-decoration:none;text-decoration-line:none;text-decoration-style:solid;text-decoration-color:#000000;letter-spacing:0px;word-spacing:0px;text-transform:none;writing-mode:lr-tb;direction:ltr;text-orientation:mixed;dominant-baseline:auto;baseline-shift:baseline;text-anchor:middle;white-space:normal;shape-padding:0;shape-margin:0;inline-size:0;vector-effect:none;fill:#000000;fill-opacity:1;stroke:#000000;stroke-width:0.264583px;stroke-linecap:butt;stroke-linejoin:miter;stroke-miterlimit:4;stroke-dasharray:none;stroke-dashoffset:0;stroke-opacity:1;stop-color:#000000;stop-opacity:1"
         y="64.512863"
         x="44.770393"
         id="tspan65630"
         sodipodi:role="line">Docs</tspan></text>
    <text
       id="text65636"
       y="56.796406"
       x="129.46806"
       style="font-size:8.46667px;line-height:8.5px;font-family:sans-serif;-inkscape-font-specification:'sans-serif, Normal';text-align:center;letter-spacing:0px;word-spacing:0px;writing-mode:lr-tb;text-anchor:middle;fill:#000000;fill-opacity:1;stroke:#000000;stroke-width:0.264583px;stroke-linecap:butt;stroke-linejoin:miter;stroke-opacity:1"
       xml:space="preserve"><tspan
         style="fill:#000000;fill-opacity:1;stroke-width:0.264583px"
         y="56.796406"
         x="129.46806"
         id="tspan65634"
         sodipodi:role="line">Voyage</tspan><tspan
         id="tspan65674"
         style="fill:#000000;fill-opacity:1;stroke-width:0.264583px"
         y="65.29641"
         x="129.46806"
         sodipodi:role="line">pictures</tspan></text>
    <text
       xml:space="preserve"
       style="font-style:normal;font-variant:normal;font-weight:normal;font-stretch:normal;font-size:8.46667px;line-height:8.5px;font-family:sans-serif;-inkscape-font-specification:'sans-serif, Normal';font-variant-ligatures:normal;font-variant-position:normal;font-variant-caps:normal;font-variant-numeric:normal;font-variant-alternates:normal;font-variant-east-asian:normal;font-feature-settings:normal;font-variation-settings:normal;text-indent:0;text-align:center;text-decoration:none;text-decoration-line:none;text-decoration-style:solid;text-decoration-color:#000000;letter-spacing:0px;word-spacing:0px;text-transform:none;writing-mode:lr-tb;direction:ltr;text-orientation:mixed;dominant-baseline:auto;baseline-shift:baseline;text-anchor:middle;white-space:normal;shape-padding:0;shape-margin:0;inline-size:0;opacity:1;vector-effect:none;fill:#000000;fill-opacity:1;stroke:#000000;stroke-width:0.264583px;stroke-linecap:butt;stroke-linejoin:miter;stroke-miterlimit:4;stroke-dasharray:none;stroke-dashoffset:0;stroke-opacity:1;stop-color:#000000;stop-opacity:1"
       x="45.090786"
       y="215.58582"
       id="text65632-3"><tspan
         sodipodi:role="line"
         id="tspan65630-1"
         x="45.090786"
         y="215.58582"
         style="font-style:normal;font-variant:normal;font-weight:normal;font-stretch:normal;font-size:8.46667px;line-height:8.5px;font-family:sans-serif;-inkscape-font-specification:'sans-serif, Normal';font-variant-ligatures:normal;font-variant-position:normal;font-variant-caps:normal;font-variant-numeric:normal;font-variant-alternates:normal;font-variant-east-asian:normal;font-feature-settings:normal;font-variation-settings:normal;text-indent:0;text-align:center;text-decoration:none;text-decoration-line:none;text-decoration-style:solid;text-decoration-color:#000000;letter-spacing:0px;word-spacing:0px;text-transform:none;writing-mode:lr-tb;direction:ltr;text-orientation:mixed;dominant-baseline:auto;baseline-shift:baseline;text-anchor:middle;white-space:normal;shape-padding:0;shape-margin:0;inline-size:0;vector-effect:none;fill:#000000;fill-opacity:1;stroke:#000000;stroke-width:0.264583px;stroke-linecap:butt;stroke-linejoin:miter;stroke-miterlimit:4;stroke-dasharray:none;stroke-dashoffset:0;stroke-opacity:1;stop-color:#000000;stop-opacity:1">Safe 1</tspan></text>
    <text
       id="text65632-3-4"
       y="215.58582"
       x="129.75746"
       style="font-style:normal;font-variant:normal;font-weight:normal;font-stretch:normal;font-size:8.46667px;line-height:8.5px;font-family:sans-serif;-inkscape-font-specification:'sans-serif, Normal';font-variant-ligatures:normal;font-variant-position:normal;font-variant-caps:normal;font-variant-numeric:normal;font-variant-alternates:normal;font-variant-east-asian:normal;font-feature-settings:normal;font-variation-settings:normal;text-indent:0;text-align:center;text-decoration:none;text-decoration-line:none;text-decoration-style:solid;text-decoration-color:#000000;letter-spacing:0px;word-spacing:0px;text-transform:none;writing-mode:lr-tb;direction:ltr;text-orientation:mixed;dominant-baseline:auto;baseline-shift:baseline;text-anchor:middle;white-space:normal;shape-padding:0;shape-margin:0;inline-size:0;opacity:1;vector-effect:none;fill:#000000;fill-opacity:1;stroke:#000000;stroke-width:0.264583px;stroke-linecap:butt;stroke-linejoin:miter;stroke-miterlimit:4;stroke-dasharray:none;stroke-dashoffset:0;stroke-opacity:1;stop-color:#000000;stop-opacity:1"
       xml:space="preserve"><tspan
         style="font-style:normal;font-variant:normal;font-weight:normal;font-stretch:normal;font-size:8.46667px;line-height:8.5px;font-family:sans-serif;-inkscape-font-specification:'sans-serif, Normal';font-variant-ligatures:normal;font-variant-position:normal;font-variant-caps:normal;font-variant-numeric:normal;font-variant-alternates:normal;font-variant-east-asian:normal;font-feature-settings:normal;font-variation-settings:normal;text-indent:0;text-align:center;text-decoration:none;text-decoration-line:none;text-decoration-style:solid;text-decoration-color:#000000;letter-spacing:0px;word-spacing:0px;text-transform:none;writing-mode:lr-tb;direction:ltr;text-orientation:mixed;dominant-baseline:auto;baseline-shift:baseline;text-anchor:middle;white-space:normal;shape-padding:0;shape-margin:0;inline-size:0;vector-effect:none;fill:#000000;fill-opacity:1;stroke:#000000;stroke-width:0.264583px;stroke-linecap:butt;stroke-linejoin:miter;stroke-miterlimit:4;stroke-dasharray:none;stroke-dashoffset:0;stroke-opacity:1;stop-color:#000000;stop-opacity:1"
         y="215.58582"
         x="129.75746"
         id="tspan65630-1-9"
         sodipodi:role="line">Safe 2</tspan></text>
    <text
       xml:space="preserve"
       style="font-size:8.46667px;line-height:8.5px;font-family:sans-serif;-inkscape-font-specification:'sans-serif, Normal';text-align:center;letter-spacing:0px;word-spacing:0px;writing-mode:lr-tb;text-anchor:middle;fill:#000000;fill-opacity:1;stroke:#000000;stroke-width:0.264583px;stroke-linecap:butt;stroke-linejoin:miter;stroke-opacity:1"
       x="87.967148"
       y="17.14831"
       id="text65636-8"><tspan
         sodipodi:role="line"
         x="87.967148"
         y="17.14831"
         style="fill:#000000;fill-opacity:1;stroke-width:0.264583px"
         id="tspan65674-2">Alice's</tspan><tspan
         id="tspan65717"
         sodipodi:role="line"
         x="87.967148"
         y="25.64831"
         style="fill:#000000;fill-opacity:1;stroke-width:0.264583px">phone</tspan></text>
    <text
       id="text65636-8-6"
       y="255.27332"
       x="87.77491"
       style="font-size:8.46667px;line-height:8.5px;font-family:sans-serif;-inkscape-font-specification:'sans-serif, Normal';text-align:center;letter-spacing:0px;word-spacing:0px;writing-mode:lr-tb;text-anchor:middle;fill:#000000;fill-opacity:1;stroke:#000000;stroke-width:0.264583px;stroke-linecap:butt;stroke-linejoin:miter;stroke-opacity:1"
       xml:space="preserve"><tspan
         id="tspan65674-2-6"
         style="fill:#000000;fill-opacity:1;stroke-width:0.264583px"
         y="255.27332"
         x="87.77491"
         sodipodi:role="line">Alice's</tspan><tspan
         style="fill:#000000;fill-opacity:1;stroke-width:0.264583px"
         y="263.77332"
         x="87.77491"
         sodipodi:role="line"
         id="tspan65717-4">Raspberry Pi</tspan></text>
    <path
       inkscape:connection-end="#path67485"
       inkscape:connection-start="#path67477"
       inkscape:connector-curvature="0"
       inkscape:connector-type="polyline"
       id="path65742"
       d="M 44.979166,89.958337 V 177.5076"
       style="display:inline;fill:none;fill-rule:evenodd;stroke:#000000;stroke-width:0.79375;stroke-linecap:butt;stroke-linejoin:miter;stroke-miterlimit:4;stroke-dasharray:0.79375, 1.5875;stroke-dashoffset:0;stroke-opacity:1;marker-end:url(#Arrow2Mend)" />
    <path
       inkscape:connection-end="#path67489"
       inkscape:connection-start="#path67481"
       inkscape:connector-curvature="0"
       inkscape:connector-type="polyline"
       id="path66020"
       d="m 129.64586,89.958337 -3e-5,87.549253"
       style="font-variation-settings:normal;display:inline;opacity:1;vector-effect:none;fill:none;fill-opacity:1;fill-rule:evenodd;stroke:#000000;stroke-width:0.79375;stroke-linecap:butt;stroke-linejoin:miter;stroke-miterlimit:4;stroke-dasharray:0.79375, 1.5875;stroke-dashoffset:0;stroke-opacity:1;marker-end:url(#marker66062);stop-color:#000000;stop-opacity:1" />
    <text
       xml:space="preserve"
       style="font-size:8.46667px;line-height:8.5px;font-family:sans-serif;-inkscape-font-specification:'sans-serif, Normal';text-align:center;letter-spacing:0px;word-spacing:0px;writing-mode:lr-tb;text-anchor:middle;fill:#000000;fill-opacity:1;stroke:#000000;stroke-width:0.264583px;stroke-linecap:butt;stroke-linejoin:miter;stroke-opacity:1"
       x="45.012238"
       y="131.74434"
       id="text65636-4"><tspan
         sodipodi:role="line"
         x="45.012238"
         y="131.74434"
         style="fill:#000000;fill-opacity:1;stroke-width:0.264583px"
         id="tspan65674-7">P2P</tspan><tspan
         id="tspan66117"
         sodipodi:role="line"
         x="45.012238"
         y="140.24434"
         style="fill:#000000;fill-opacity:1;stroke-width:0.264583px">sync</tspan></text>
    <text
       id="text65636-4-1"
       y="131.74434"
       x="129.67889"
       style="font-size:8.46667px;line-height:8.5px;font-family:sans-serif;-inkscape-font-specification:'sans-serif, Normal';text-align:center;letter-spacing:0px;word-spacing:0px;writing-mode:lr-tb;text-anchor:middle;fill:#000000;fill-opacity:1;stroke:#000000;stroke-width:0.264583px;stroke-linecap:butt;stroke-linejoin:miter;stroke-opacity:1"
       xml:space="preserve"><tspan
         id="tspan65674-7-7"
         style="fill:#000000;fill-opacity:1;stroke-width:0.264583px"
         y="131.74434"
         x="129.67889"
         sodipodi:role="line">P2P</tspan><tspan
         style="fill:#000000;fill-opacity:1;stroke-width:0.264583px"
         y="140.24434"
         x="129.67889"
         sodipodi:role="line"
         id="tspan66117-2">sync</tspan></text>
    <path
       style="fill:#000000;stroke:none;stroke-width:1.32291"
       d="m 50.270834,15.874999 c -7.3025,0 -13.229167,5.926667 -13.229167,13.229167 0,7.3025 5.926667,13.229167 13.229167,13.229167 7.3025,0 13.229167,-5.926667 13.229167,-13.229167 0,-7.3025 -5.926667,-13.229167 -13.229167,-13.229167 z m 0,3.968751 c 2.196042,0 3.96875,1.772708 3.96875,3.96875 0,2.196041 -1.772708,3.96875 -3.96875,3.96875 -2.196041,0 -3.96875,-1.772709 -3.96875,-3.96875 0,-2.196042 1.772709,-3.96875 3.96875,-3.96875 z m 0,18.785417 a 9.5250002,9.5250002 0 0 1 -7.9375,-4.259792 c 0.03969,-2.632605 5.291667,-4.074584 7.9375,-4.074584 2.632604,0 7.897813,1.441979 7.9375,4.074584 a 9.5250002,9.5250002 0 0 1 -7.9375,4.259792 z"
       id="path67469" />
    <path
       style="fill:#000000;stroke:none;stroke-width:1.20264"
       d="m 93.806736,31.762028 -12.026447,-0.01203 c -1.322909,0 -2.405289,1.08238 -2.405289,2.405289 v 21.647604 c 0,1.32291 1.08238,2.40529 2.405289,2.40529 h 12.026447 c 1.322908,0 2.405289,-1.08238 2.405289,-2.40529 V 34.15529 c 0,-1.322909 -1.082381,-2.393263 -2.405289,-2.393262 z m 0,21.635578 H 81.780289 V 36.560581 h 12.026447 z"
       id="path67473" />
    <path
       style="fill:#000000;stroke:none;stroke-width:1.32291"
       d="M 55.562501,71.437503 H 44.979167 L 42.333334,68.79167 h -7.9375 c -1.455209,0 -2.632604,1.190625 -2.632604,2.645833 l -0.01323,15.875 c 0,1.455209 1.190625,2.645834 2.645833,2.645834 H 55.5625 c 1.455208,0 2.645833,-1.190625 2.645833,-2.645834 V 74.083337 c 10e-7,-1.455209 -1.190624,-2.645834 -2.645832,-2.645834 z m 0,15.875 H 34.395834 V 74.083337 h 21.166667 z"
       id="path67477" />
    <path
       style="fill:#000000;stroke:none;stroke-width:1.32291"
       d="M 140.22916,71.437503 H 129.64583 L 127,68.79167 h -7.9375 c -1.45521,0 -2.63261,1.190625 -2.63261,2.645833 l -0.0132,15.875 c 0,1.455209 1.19063,2.645834 2.64584,2.645834 h 21.16666 c 1.45521,0 2.64584,-1.190625 2.64584,-2.645834 V 74.083337 c 0,-1.455209 -1.19063,-2.645834 -2.64584,-2.645834 z m 0,15.875 H 119.0625 V 74.083337 h 21.16666 z"
       id="path67481" />
    <path
       style="fill:#000000;stroke:none;stroke-width:1.46991"
       d="m 57.473379,199.55621 v 1.46991 c 0,1.6169 -1.322917,2.93981 -2.939815,2.93981 H 33.954861 a 2.9398148,2.9398148 0 0 1 -2.939815,-2.93981 v -20.5787 a 2.9398148,2.9398148 0 0 1 2.939815,-2.93982 h 20.578703 c 1.616898,0 2.939815,1.32292 2.939815,2.93982 v 1.4699 H 44.244212 a 2.9398148,2.9398148 0 0 0 -2.939815,2.93982 v 11.75926 a 2.9398148,2.9398148 0 0 0 2.939815,2.93981 z M 44.244212,196.6164 H 58.943286 V 184.85714 H 44.244212 Z m 5.87963,-3.67477 c -1.220023,0 -2.204861,-0.98484 -2.204861,-2.20486 0,-1.22002 0.984838,-2.20486 2.204861,-2.20486 1.220023,0 2.204861,0.98484 2.204861,2.20486 0,1.22002 -0.984838,2.20486 -2.204861,2.20486 z"
       id="path67485" />
    <path
       style="fill:#000000;stroke:none;stroke-width:1.46991"
       d="m 142.14004,199.5562 v 1.46991 c 0,1.6169 -1.32291,2.93981 -2.93981,2.93981 h -20.5787 a 2.9398148,2.9398148 0 0 1 -2.93982,-2.93981 v -20.5787 a 2.9398148,2.9398148 0 0 1 2.93982,-2.93982 h 20.5787 c 1.6169,0 2.93981,1.32292 2.93981,2.93982 v 1.4699 h -13.22916 a 2.9398148,2.9398148 0 0 0 -2.93982,2.93982 v 11.75926 a 2.9398148,2.9398148 0 0 0 2.93982,2.93981 z m -13.22916,-2.93981 h 14.69907 v -11.75926 h -14.69907 z m 5.87963,-3.67477 c -1.22003,0 -2.20486,-0.98484 -2.20486,-2.20486 0,-1.22002 0.98483,-2.20486 2.20486,-2.20486 1.22002,0 2.20486,0.98484 2.20486,2.20486 0,1.22002 -0.98484,2.20486 -2.20486,2.20486 z"
       id="path67489" />
    <path
       style="fill:#000000;stroke:none;stroke-width:1.46991"
       d="m 102.49259,225.77778 v -2.93982 h -2.939818 v -2.93981 c 0,-1.6169 -1.322917,-2.93982 -2.939815,-2.93982 H 76.034253 c -1.616898,0 -2.939814,1.32292 -2.939814,2.93982 v 20.5787 c 0,1.6169 1.322916,2.93981 2.939814,2.93981 h 20.578704 c 1.616898,0 2.939815,-1.32291 2.939815,-2.93981 v -2.93981 h 2.939818 v -2.93982 h -2.939818 v -2.93981 h 2.939818 v -2.93982 h -2.939818 v -2.93981 z m -5.879633,14.69907 H 76.034253 v -20.5787 h 20.578704 z m -17.638889,-8.81944 h 7.349537 v 5.87963 h -7.349537 z m 8.819444,-8.81945 h 5.87963 v 4.40972 h -5.87963 z m -8.819444,0 h 7.349537 v 7.34954 h -7.349537 z m 8.819444,5.87963 h 5.87963 v 8.81945 h -5.87963 z"
       id="path67493" />
  </g>
</svg>
