<?xml version="1.0" encoding="UTF-8" standalone="no"?>
<svg
   xmlns:dc="http://purl.org/dc/elements/1.1/"
   xmlns:cc="http://creativecommons.org/ns#"
   xmlns:rdf="http://www.w3.org/1999/02/22-rdf-syntax-ns#"
   xmlns:svg="http://www.w3.org/2000/svg"
   xmlns="http://www.w3.org/2000/svg"
   xmlns:xlink="http://www.w3.org/1999/xlink"
   xmlns:sodipodi="http://sodipodi.sourceforge.net/DTD/sodipodi-0.dtd"
   xmlns:inkscape="http://www.inkscape.org/namespaces/inkscape"
   width="1216.7367"
   height="1024.0947"
   viewBox="0 0 321.92825 270.95838"
   version="1.1"
   id="svg59601"
   sodipodi:docname="uc-sharing.svg"
   inkscape:version="1.0 (4035a4fb49, 2020-05-01)">
  <defs
     id="defs59595">
    <marker
       inkscape:stockid="Arrow2Mend"
       orient="auto"
       refY="0"
       refX="0"
       id="marker68015"
       style="overflow:visible"
       inkscape:isstock="true">
      <path
         id="path68013"
         style="fill:#000000;fill-opacity:1;fill-rule:evenodd;stroke:#000000;stroke-width:0.625;stroke-linejoin:round;stroke-opacity:1"
         d="M 8.7185878,4.0337352 -2.2072895,0.01601326 8.7185884,-4.0017078 c -1.7454984,2.3720609 -1.7354408,5.6174519 -6e-7,8.035443 z"
         transform="scale(-0.6)" />
    </marker>
    <marker
       inkscape:isstock="true"
       style="overflow:visible"
       id="marker68005"
       refX="0.0"
       refY="0.0"
       orient="auto"
       inkscape:stockid="Arrow2Mstart">
      <path
         transform="scale(0.6) translate(0,0)"
         d="M 8.7185878,4.0337352 L -2.2072895,0.016013256 L 8.7185884,-4.0017078 C 6.9730900,-1.6296469 6.9831476,1.6157441 8.7185878,4.0337352 z "
         style="fill-rule:evenodd;stroke-width:0.625;stroke-linejoin:round;stroke:#000000;stroke-opacity:1;fill:#000000;fill-opacity:1"
         id="path68003" />
    </marker>
    <marker
       inkscape:stockid="Arrow2Mend"
       orient="auto"
       refY="0"
       refX="0"
       id="marker67872"
       style="overflow:visible"
       inkscape:isstock="true">
      <path
         id="path67870"
         style="fill:#000000;fill-opacity:1;fill-rule:evenodd;stroke:#000000;stroke-width:0.625;stroke-linejoin:round;stroke-opacity:1"
         d="M 8.7185878,4.0337352 -2.2072895,0.01601326 8.7185884,-4.0017078 c -1.7454984,2.3720609 -1.7354408,5.6174519 -6e-7,8.035443 z"
         transform="scale(-0.6)" />
    </marker>
    <marker
       inkscape:isstock="true"
       style="overflow:visible"
       id="marker67862"
       refX="0.0"
       refY="0.0"
       orient="auto"
       inkscape:stockid="Arrow2Mstart">
      <path
         transform="scale(0.6) translate(0,0)"
         d="M 8.7185878,4.0337352 L -2.2072895,0.016013256 L 8.7185884,-4.0017078 C 6.9730900,-1.6296469 6.9831476,1.6157441 8.7185878,4.0337352 z "
         style="fill-rule:evenodd;stroke-width:0.625;stroke-linejoin:round;stroke:#000000;stroke-opacity:1;fill:#000000;fill-opacity:1"
         id="path67860" />
    </marker>
    <marker
       inkscape:stockid="Arrow2Mstart"
       orient="auto"
       refY="0.0"
       refX="0.0"
       id="Arrow2Mstart"
       style="overflow:visible"
       inkscape:isstock="true"
       inkscape:collect="always">
      <path
         id="path65768"
         style="fill-rule:evenodd;stroke-width:0.625;stroke-linejoin:round;stroke:#000000;stroke-opacity:1;fill:#000000;fill-opacity:1"
         d="M 8.7185878,4.0337352 L -2.2072895,0.016013256 L 8.7185884,-4.0017078 C 6.9730900,-1.6296469 6.9831476,1.6157441 8.7185878,4.0337352 z "
         transform="scale(0.6) translate(0,0)" />
    </marker>
    <marker
       inkscape:isstock="true"
       style="overflow:visible"
       id="marker66062"
       refX="0"
       refY="0"
       orient="auto"
       inkscape:stockid="Arrow2Mend"
       inkscape:collect="always">
      <path
         transform="scale(-0.6)"
         d="M 8.7185878,4.0337352 -2.2072895,0.01601326 8.7185884,-4.0017078 c -1.7454984,2.3720609 -1.7354408,5.6174519 -6e-7,8.035443 z"
         style="fill:#000000;fill-opacity:1;fill-rule:evenodd;stroke:#000000;stroke-width:0.625;stroke-linejoin:round;stroke-opacity:1"
         id="path66060" />
    </marker>
    <symbol
       id="ic_account_circle_24px"
       viewBox="0 0 24 24">
      <path
         id="path61636"
         d="M 3.175,0.52916667 C 1.7145,0.52916667 0.52916667,1.7145 0.52916667,3.175 0.52916667,4.6355 1.7145,5.8208333 3.175,5.8208333 4.6355,5.8208333 5.8208333,4.6355 5.8208333,3.175 5.8208333,1.7145 4.6355,0.52916667 3.175,0.52916667 Z m 0,0.79375003 c 0.4392083,0 0.79375,0.3545416 0.79375,0.79375 0,0.4392083 -0.3545417,0.79375 -0.79375,0.79375 -0.4392083,0 -0.79375,-0.3545417 -0.79375,-0.79375 0,-0.4392084 0.3545417,-0.79375 0.79375,-0.79375 z M 3.175,5.08 A 1.905,1.905 0 0 1 1.5875,4.2280417 C 1.5954375,3.7015208 2.6458333,3.413125 3.175,3.413125 c 0.5265208,0 1.5795625,0.2883958 1.5875,0.8149167 A 1.905,1.905 0 0 1 3.175,5.08 Z"
         style="stroke-width:0.264583" />
    </symbol>
    <symbol
       id="ic_account_balance_wallet_24px"
       viewBox="0 0 24 24">
      <path
         id="path61630"
         d="M 5.55625,4.7625 V 5.0270833 C 5.55625,5.318125 5.318125,5.55625 5.0270833,5.55625 H 1.3229167 A 0.52916667,0.52916667 0 0 1 0.79375,5.0270833 V 1.3229167 A 0.52916667,0.52916667 0 0 1 1.3229167,0.79375 h 3.7041666 c 0.2910417,0 0.5291667,0.238125 0.5291667,0.5291667 V 1.5875 H 3.175 A 0.52916667,0.52916667 0 0 0 2.6458333,2.1166667 V 4.2333333 A 0.52916667,0.52916667 0 0 0 3.175,4.7625 Z M 3.175,4.2333333 H 5.8208333 V 2.1166667 H 3.175 Z M 4.2333333,3.571875 c -0.2196041,0 -0.396875,-0.1772708 -0.396875,-0.396875 0,-0.2196042 0.1772709,-0.396875 0.396875,-0.396875 0.2196042,0 0.396875,0.1772708 0.396875,0.396875 0,0.2196042 -0.1772708,0.396875 -0.396875,0.396875 z"
         style="stroke-width:0.264583" />
    </symbol>
    <symbol
       id="ic_folder_open_24px"
       viewBox="0 0 24 24">
      <path
         id="path64393"
         d="M 5.2916667,1.5875 H 3.175 L 2.6458333,1.0583333 h -1.5875 c -0.29104163,0 -0.5265208,0.238125 -0.5265208,0.5291667 l -0.002646,3.175 c 0,0.2910417 0.238125,0.5291667 0.5291666,0.5291667 h 4.2333334 c 0.2910416,0 0.5291666,-0.238125 0.5291666,-0.5291667 V 2.1166667 C 5.8208333,1.825625 5.5827083,1.5875 5.2916667,1.5875 Z m 0,3.175 H 1.0583333 V 2.1166667 h 4.2333334 z"
         style="stroke-width:0.264583" />
    </symbol>
    <symbol
       id="ic_smartphone_24px"
       viewBox="0 0 24 24">
      <path
         id="path64574"
         d="m 4.4979167,0.26722917 -2.6458334,-0.002646 c -0.2910416,0 -0.5291666,0.238125 -0.5291666,0.52916667 V 5.5562498 c 0,0.2910417 0.238125,0.5291667 0.5291666,0.5291667 h 2.6458334 c 0.2910416,0 0.5291666,-0.238125 0.5291666,-0.5291667 V 0.79374984 c 0,-0.29104167 -0.238125,-0.52652083 -0.5291666,-0.52652067 z m 0,4.75985413 H 1.8520833 V 1.3229167 h 2.6458334 z"
         style="stroke-width:0.264583" />
    </symbol>
    <symbol
       id="ic_developer_board_24px"
       viewBox="0 0 24 24">
      <path
         id="path64475"
         d="M 5.8208333,2.38125 V 1.8520833 H 5.2916667 V 1.3229167 C 5.2916667,1.031875 5.0535417,0.79375 4.7625,0.79375 H 1.0583333 c -0.29104163,0 -0.52916663,0.238125 -0.52916663,0.5291667 v 3.7041666 c 0,0.2910417 0.238125,0.5291667 0.52916663,0.5291667 H 4.7625 c 0.2910417,0 0.5291667,-0.238125 0.5291667,-0.5291667 V 4.4979167 H 5.8208333 V 3.96875 H 5.2916667 V 3.4395833 H 5.8208333 V 2.9104167 H 5.2916667 V 2.38125 Z M 4.7625,5.0270833 H 1.0583333 V 1.3229167 H 4.7625 Z m -3.175,-1.5875 H 2.9104167 V 4.4979167 H 1.5875 Z m 1.5875,-1.5875 h 1.0583333 v 0.79375 H 3.175 Z m -1.5875,0 H 2.9104167 V 3.175 H 1.5875 Z M 3.175,2.9104167 h 1.0583333 v 1.5875 H 3.175 Z"
         style="stroke-width:0.264583" />
    </symbol>
    <pattern
       patternUnits="userSpaceOnUse"
       width="100"
       height="100"
       patternTransform="translate(100,59.999999)"
       id="pattern64833">
      <use
         transform="matrix(2.1597301,0,0,2.1597301,-10,-103.94826)"
         height="100%"
         width="100%"
         y="0"
         x="0"
         id="use62724"
         style="fill:#000000;stroke:none"
         xlink:href="#ic_account_circle_24px" />
    </pattern>
    <pattern
       patternUnits="userSpaceOnUse"
       width="63.636"
       height="99.99943"
       patternTransform="translate(300,100)"
       id="pattern64838">
      <use
         transform="matrix(1.9633798,0,0,1.9633798,-22.727144,-89.952445)"
         height="100%"
         width="100%"
         y="0"
         x="0"
         id="use64721"
         style="fill:#000000;stroke:none"
         xlink:href="#ic_smartphone_24px" />
    </pattern>
    <pattern
       patternUnits="userSpaceOnUse"
       width="100"
       height="80.000002"
       patternTransform="translate(120,240)"
       id="pattern64843">
      <use
         transform="matrix(2.1597301,0,0,2.1597301,-9.999997,-113.94826)"
         height="100%"
         width="100%"
         y="0"
         x="0"
         id="use64442"
         style="fill:#000000;stroke:none"
         xlink:href="#ic_folder_open_24px" />
    </pattern>
    <pattern
       patternUnits="userSpaceOnUse"
       width="105.55555"
       height="99.999999"
       patternTransform="translate(117.22222,650.89489)"
       id="pattern64848">
      <use
         transform="matrix(2.3997,0,0,2.3997,-16.666667,-121.05362)"
         height="100%"
         width="100%"
         y="0"
         x="0"
         id="use62746"
         style="fill:#000000;stroke:none"
         xlink:href="#ic_account_balance_wallet_24px" />
    </pattern>
    <pattern
       patternUnits="userSpaceOnUse"
       width="111.11111"
       height="99.999999"
       patternTransform="translate(276.26245,800.00001)"
       id="pattern64853">
      <use
         transform="matrix(2.3997,0,0,2.3997,-11.111111,-121.05362)"
         height="100%"
         width="100%"
         y="0"
         x="0"
         id="use64743"
         style="fill:#000000;stroke:none"
         xlink:href="#ic_developer_board_24px" />
    </pattern>
    <pattern
       patternUnits="userSpaceOnUse"
       width="100"
       height="80.000002"
       patternTransform="translate(439.99998,240)"
       id="pattern65576">
      <use
         transform="matrix(2.1597301,0,0,2.1597301,-9.999997,-113.94826)"
         height="100%"
         width="100%"
         y="0"
         x="0"
         id="use64921"
         style="fill:#000000;stroke:none"
         xlink:href="#ic_folder_open_24px" />
    </pattern>
    <pattern
       patternUnits="userSpaceOnUse"
       width="105.55555"
       height="99.999999"
       patternTransform="translate(437.22222,650.89489)"
       id="pattern65581">
      <use
         transform="matrix(2.3997,0,0,2.3997,-16.666667,-121.05362)"
         height="100%"
         width="100%"
         y="0"
         x="0"
         id="use65564"
         style="fill:#000000;stroke:none"
         xlink:href="#ic_account_balance_wallet_24px" />
    </pattern>
    <marker
       inkscape:isstock="true"
       style="overflow:visible"
       id="Arrow2Mend-9"
       refX="0"
       refY="0"
       orient="auto"
       inkscape:stockid="Arrow2Mend">
      <path
         transform="scale(-0.6)"
         d="M 8.7185878,4.0337352 -2.2072895,0.01601326 8.7185884,-4.0017078 c -1.7454984,2.3720609 -1.7354408,5.6174519 -6e-7,8.035443 z"
         style="fill:#000000;fill-opacity:1;fill-rule:evenodd;stroke:#000000;stroke-width:0.625;stroke-linejoin:round;stroke-opacity:1"
         id="path65771-5" />
    </marker>
    <symbol
       id="ic_computer_24px"
       viewBox="0 0 24 24">
      <path
         id="path64466"
         d="m 5.2916667,4.7625 c 0.2910416,0 0.5265208,-0.238125 0.5265208,-0.5291667 L 5.8208333,1.5875 c 0,-0.2910417 -0.238125,-0.5291667 -0.5291666,-0.5291667 H 1.0583333 c -0.29104163,0 -0.52916663,0.238125 -0.52916663,0.5291667 v 2.6458333 c 0,0.2910417 0.238125,0.5291667 0.52916663,0.5291667 H 0 V 5.2916667 H 6.35 V 4.7625 Z M 1.0583333,1.5875 H 5.2916667 V 4.2333333 H 1.0583333 Z"
         style="stroke-width:0.264583" />
    </symbol>
    <marker
       inkscape:isstock="true"
       style="overflow:visible"
       id="Arrow2Mstart-7"
       refX="0"
       refY="0"
       orient="auto"
       inkscape:stockid="Arrow2Mstart">
      <path
         transform="scale(0.6)"
         d="M 8.7185878,4.0337352 -2.2072895,0.01601326 8.7185884,-4.0017078 c -1.7454984,2.3720609 -1.7354408,5.6174519 -6e-7,8.035443 z"
         style="fill:#000000;fill-opacity:1;fill-rule:evenodd;stroke:#000000;stroke-width:0.625;stroke-linejoin:round;stroke-opacity:1"
         id="path65768-1" />
    </marker>
    <marker
       inkscape:stockid="Arrow2Mend"
       orient="auto"
       refY="0"
       refX="0"
       id="marker66062-1"
       style="overflow:visible"
       inkscape:isstock="true">
      <path
         id="path66060-5"
         style="fill:#000000;fill-opacity:1;fill-rule:evenodd;stroke:#000000;stroke-width:0.625;stroke-linejoin:round;stroke-opacity:1"
         d="M 8.7185878,4.0337352 -2.2072895,0.01601326 8.7185884,-4.0017078 c -1.7454984,2.3720609 -1.7354408,5.6174519 -6e-7,8.035443 z"
         transform="scale(-0.6)" />
    </marker>
    <marker
       inkscape:isstock="true"
       style="overflow:visible"
       id="Arrow2Mstart-77"
       refX="0"
       refY="0"
       orient="auto"
       inkscape:stockid="Arrow2Mstart">
      <path
         transform="scale(0.6)"
         d="M 8.7185878,4.0337352 -2.2072895,0.01601326 8.7185884,-4.0017078 c -1.7454984,2.3720609 -1.7354408,5.6174519 -6e-7,8.035443 z"
         style="fill:#000000;fill-opacity:1;fill-rule:evenodd;stroke:#000000;stroke-width:0.625;stroke-linejoin:round;stroke-opacity:1"
         id="path65768-6" />
    </marker>
    <marker
       inkscape:stockid="Arrow2Mend"
       orient="auto"
       refY="0"
       refX="0"
       id="marker66062-7"
       style="overflow:visible"
       inkscape:isstock="true">
      <path
         id="path66060-3"
         style="fill:#000000;fill-opacity:1;fill-rule:evenodd;stroke:#000000;stroke-width:0.625;stroke-linejoin:round;stroke-opacity:1"
         d="M 8.7185878,4.0337352 -2.2072895,0.01601326 8.7185884,-4.0017078 c -1.7454984,2.3720609 -1.7354408,5.6174519 -6e-7,8.035443 z"
         transform="scale(-0.6)" />
    </marker>
  </defs>
  <sodipodi:namedview
     id="base"
     pagecolor="#ffffff"
     bordercolor="#666666"
     borderopacity="1.0"
     inkscape:pageopacity="0.0"
     inkscape:pageshadow="2"
     inkscape:zoom="0.71446409"
     inkscape:cx="511.15451"
     inkscape:cy="504.48289"
     inkscape:document-units="mm"
     inkscape:current-layer="layer1"
     inkscape:document-rotation="0"
     showgrid="true"
     fit-margin-top="20"
     fit-margin-left="20"
     fit-margin-right="20"
     fit-margin-bottom="20"
     showborder="true"
     units="px">
    <inkscape:grid
       type="xygrid"
       id="grid60185"
       originx="-53.780093"
       originy="29.416659" />
  </sodipodi:namedview>
  <metadata
     id="metadata59598">
    <rdf:RDF>
      <cc:Work
         rdf:about="">
        <dc:format>image/svg+xml</dc:format>
        <dc:type
           rdf:resource="http://purl.org/dc/dcmitype/StillImage" />
        <dc:title />
      </cc:Work>
    </rdf:RDF>
  </metadata>
  <g
     inkscape:label="Capa 1"
     inkscape:groupmode="layer"
     id="layer1"
     transform="translate(-31.75)">
    <rect
       style="fill:none;stroke:none;stroke-width:0.264583"
       width="26.458332"
       height="26.458332"
       x="37.041668"
       y="15.874999"
       id="rect64836" />
    <rect
       style="fill:none;stroke:none;stroke-width:0.264583"
       width="16.837025"
       height="26.458181"
       x="79.375"
       y="31.75"
       id="rect64841" />
    <rect
       style="fill:none;stroke:none;stroke-width:0.264583"
       width="29.398148"
       height="26.458332"
       x="73.094437"
       y="216.95833"
       id="rect64856" />
    <rect
       style="fill:none;stroke:none;stroke-width:0.264583"
       width="26.458332"
       height="21.166666"
       x="116.41666"
       y="68.791664"
       id="rect65579" />
    <rect
       style="fill:none;stroke:none;stroke-width:0.264583"
       width="27.928238"
       height="26.458332"
       x="115.68172"
       y="177.50761"
       id="rect65584" />
    <path
       style="display:inline;fill:none;fill-rule:evenodd;stroke:#000000;stroke-width:0.264583px;stroke-linecap:butt;stroke-linejoin:miter;stroke-opacity:1"
       d="M 117.44712,69.349594 96.212025,51.897756"
       id="path65588"
       inkscape:connector-type="polyline"
       inkscape:connector-curvature="0"
       inkscape:connection-end="#path67473"
       inkscape:connection-start="#path67481" />
    <path
       style="display:inline;fill:none;fill-rule:evenodd;stroke:#000000;stroke-width:0.264583px;stroke-linecap:butt;stroke-linejoin:miter;stroke-opacity:1"
       d="M 116.5341,203.0961 99.464935,219.18581"
       id="path65592"
       inkscape:connector-type="polyline"
       inkscape:connector-curvature="0"
       inkscape:connection-start="#path67489"
       inkscape:connection-end="#path67493" />
    <text
       xml:space="preserve"
       style="font-size:8.46667px;line-height:5.82083px;font-family:sans-serif;-inkscape-font-specification:'sans-serif, Normal';text-align:center;letter-spacing:0px;word-spacing:0px;writing-mode:lr-tb;text-anchor:middle;fill:none;stroke:#000000;stroke-width:0.264583px;stroke-linecap:butt;stroke-linejoin:miter;stroke-opacity:1"
       x="10.583333"
       y="10.583333"
       id="text65624"><tspan
         sodipodi:role="line"
         id="tspan65622"
         x="10.583333"
         y="10.583333"
         style="stroke-width:0.264583px" /></text>
    <text
       xml:space="preserve"
       style="font-style:normal;font-variant:normal;font-weight:normal;font-stretch:normal;font-size:8.46667px;line-height:8.5px;font-family:sans-serif;-inkscape-font-specification:'sans-serif, Normal';font-variant-ligatures:normal;font-variant-position:normal;font-variant-caps:normal;font-variant-numeric:normal;font-variant-alternates:normal;font-variant-east-asian:normal;font-feature-settings:normal;font-variation-settings:normal;text-indent:0;text-align:center;text-decoration:none;text-decoration-line:none;text-decoration-style:solid;text-decoration-color:#000000;letter-spacing:0px;word-spacing:0px;text-transform:none;writing-mode:lr-tb;direction:ltr;text-orientation:mixed;dominant-baseline:auto;baseline-shift:baseline;text-anchor:middle;white-space:normal;shape-padding:0;shape-margin:0;inline-size:0;opacity:1;vector-effect:none;fill:#000000;fill-opacity:1;stroke:#000000;stroke-width:0.264583px;stroke-linecap:butt;stroke-linejoin:miter;stroke-miterlimit:4;stroke-dasharray:none;stroke-dashoffset:0;stroke-opacity:1;stop-color:#000000;stop-opacity:1"
       x="39.879742"
       y="17.14831"
       id="text65628"
       transform="translate(10.583333,103.1875)"><tspan
         sodipodi:role="line"
         id="tspan65626"
         x="39.879742"
         y="17.14831"
         style="font-style:normal;font-variant:normal;font-weight:normal;font-stretch:normal;font-size:8.46667px;line-height:8.5px;font-family:sans-serif;-inkscape-font-specification:'sans-serif, Normal';font-variant-ligatures:normal;font-variant-position:normal;font-variant-caps:normal;font-variant-numeric:normal;font-variant-alternates:normal;font-variant-east-asian:normal;font-feature-settings:normal;font-variation-settings:normal;text-indent:0;text-align:center;text-decoration:none;text-decoration-line:none;text-decoration-style:solid;text-decoration-color:#000000;letter-spacing:0px;word-spacing:0px;text-transform:none;writing-mode:lr-tb;direction:ltr;text-orientation:mixed;dominant-baseline:auto;baseline-shift:baseline;text-anchor:middle;white-space:normal;shape-padding:0;shape-margin:0;inline-size:0;vector-effect:none;fill:#000000;fill-opacity:1;stroke:#000000;stroke-width:0.264583px;stroke-linecap:butt;stroke-linejoin:miter;stroke-miterlimit:4;stroke-dasharray:none;stroke-dashoffset:0;stroke-opacity:1;stop-color:#000000;stop-opacity:1">Alice</tspan></text>
    <text
       xml:space="preserve"
       style="font-size:8.46667px;line-height:8.5px;font-family:sans-serif;-inkscape-font-specification:'sans-serif, Normal';text-align:center;letter-spacing:0px;word-spacing:0px;writing-mode:lr-tb;text-anchor:middle;fill:#000000;fill-opacity:1;stroke:#000000;stroke-width:0.264583px;stroke-linecap:butt;stroke-linejoin:miter;stroke-opacity:1"
       x="129.46806"
       y="56.796406"
       id="text65636"><tspan
         sodipodi:role="line"
         id="tspan65634"
         x="129.46806"
         y="56.796406"
         style="fill:#000000;fill-opacity:1;stroke-width:0.264583px">Voyage</tspan><tspan
         sodipodi:role="line"
         x="129.46806"
         y="65.29641"
         style="fill:#000000;fill-opacity:1;stroke-width:0.264583px"
         id="tspan65674">pictures</tspan></text>
    <text
       xml:space="preserve"
       style="font-style:normal;font-variant:normal;font-weight:normal;font-stretch:normal;font-size:8.46667px;line-height:8.5px;font-family:sans-serif;-inkscape-font-specification:'sans-serif, Normal';font-variant-ligatures:normal;font-variant-position:normal;font-variant-caps:normal;font-variant-numeric:normal;font-variant-alternates:normal;font-variant-east-asian:normal;font-feature-settings:normal;font-variation-settings:normal;text-indent:0;text-align:center;text-decoration:none;text-decoration-line:none;text-decoration-style:solid;text-decoration-color:#000000;letter-spacing:0px;word-spacing:0px;text-transform:none;writing-mode:lr-tb;direction:ltr;text-orientation:mixed;dominant-baseline:auto;baseline-shift:baseline;text-anchor:middle;white-space:normal;shape-padding:0;shape-margin:0;inline-size:0;opacity:1;vector-effect:none;fill:#000000;fill-opacity:1;stroke:#000000;stroke-width:0.264583px;stroke-linecap:butt;stroke-linejoin:miter;stroke-miterlimit:4;stroke-dasharray:none;stroke-dashoffset:0;stroke-opacity:1;stop-color:#000000;stop-opacity:1"
       x="129.75746"
       y="215.58582"
       id="text65632-3-4"><tspan
         sodipodi:role="line"
         id="tspan65630-1-9"
         x="129.75746"
         y="215.58582"
         style="font-style:normal;font-variant:normal;font-weight:normal;font-stretch:normal;font-size:8.46667px;line-height:8.5px;font-family:sans-serif;-inkscape-font-specification:'sans-serif, Normal';font-variant-ligatures:normal;font-variant-position:normal;font-variant-caps:normal;font-variant-numeric:normal;font-variant-alternates:normal;font-variant-east-asian:normal;font-feature-settings:normal;font-variation-settings:normal;text-indent:0;text-align:center;text-decoration:none;text-decoration-line:none;text-decoration-style:solid;text-decoration-color:#000000;letter-spacing:0px;word-spacing:0px;text-transform:none;writing-mode:lr-tb;direction:ltr;text-orientation:mixed;dominant-baseline:auto;baseline-shift:baseline;text-anchor:middle;white-space:normal;shape-padding:0;shape-margin:0;inline-size:0;vector-effect:none;fill:#000000;fill-opacity:1;stroke:#000000;stroke-width:0.264583px;stroke-linecap:butt;stroke-linejoin:miter;stroke-miterlimit:4;stroke-dasharray:none;stroke-dashoffset:0;stroke-opacity:1;stop-color:#000000;stop-opacity:1">Safe 2</tspan></text>
    <text
       id="text65636-8"
       y="17.14831"
       x="87.967148"
       style="font-size:8.46667px;line-height:8.5px;font-family:sans-serif;-inkscape-font-specification:'sans-serif, Normal';text-align:center;letter-spacing:0px;word-spacing:0px;writing-mode:lr-tb;text-anchor:middle;fill:#000000;fill-opacity:1;stroke:#000000;stroke-width:0.264583px;stroke-linecap:butt;stroke-linejoin:miter;stroke-opacity:1"
       xml:space="preserve"><tspan
         id="tspan65674-2"
         style="fill:#000000;fill-opacity:1;stroke-width:0.264583px"
         y="17.14831"
         x="87.967148"
         sodipodi:role="line">Alice's</tspan><tspan
         style="fill:#000000;fill-opacity:1;stroke-width:0.264583px"
         y="25.64831"
         x="87.967148"
         sodipodi:role="line"
         id="tspan65717">phone</tspan></text>
    <text
       xml:space="preserve"
       style="font-size:8.46667px;line-height:8.5px;font-family:sans-serif;-inkscape-font-specification:'sans-serif, Normal';text-align:center;letter-spacing:0px;word-spacing:0px;writing-mode:lr-tb;text-anchor:middle;fill:#000000;fill-opacity:1;stroke:#000000;stroke-width:0.264583px;stroke-linecap:butt;stroke-linejoin:miter;stroke-opacity:1"
       x="87.77491"
       y="255.27332"
       id="text65636-8-6"><tspan
         sodipodi:role="line"
         x="87.77491"
         y="255.27332"
         style="fill:#000000;fill-opacity:1;stroke-width:0.264583px"
         id="tspan65674-2-6">Alice's</tspan><tspan
         id="tspan65717-4"
         sodipodi:role="line"
         x="87.77491"
         y="263.77332"
         style="fill:#000000;fill-opacity:1;stroke-width:0.264583px">Raspberry Pi</tspan></text>
    <path
       style="font-variation-settings:normal;display:inline;opacity:1;vector-effect:none;fill:none;fill-opacity:1;fill-rule:evenodd;stroke:#000000;stroke-width:0.79375;stroke-linecap:butt;stroke-linejoin:miter;stroke-miterlimit:4;stroke-dasharray:0.79375, 1.5875;stroke-dashoffset:0;stroke-opacity:1;marker-start:url(#Arrow2Mstart);marker-end:url(#marker66062);stop-color:#000000;stop-opacity:1"
       d="m 129.64586,89.958337 -3e-5,87.549253"
       id="path66020"
       inkscape:connector-type="polyline"
       inkscape:connector-curvature="0"
       inkscape:connection-start="#path67481"
       inkscape:connection-end="#path67489" />
    <text
       xml:space="preserve"
       style="font-size:8.46667px;line-height:8.5px;font-family:sans-serif;-inkscape-font-specification:'sans-serif, Normal';text-align:center;letter-spacing:0px;word-spacing:0px;writing-mode:lr-tb;text-anchor:middle;fill:#000000;fill-opacity:1;stroke:#000000;stroke-width:0.264583px;stroke-linecap:butt;stroke-linejoin:miter;stroke-opacity:1"
       x="167.92036"
       y="115.35853"
       id="text65636-4-1"><tspan
         sodipodi:role="line"
         x="167.92036"
         y="115.35853"
         style="fill:#000000;fill-opacity:1;stroke-width:0.264583px"
         id="tspan65674-7-7">P2P</tspan><tspan
         id="tspan66117-2"
         sodipodi:role="line"
         x="167.92036"
         y="123.85853"
         style="fill:#000000;fill-opacity:1;stroke-width:0.264583px">sync</tspan></text>
    <path
       id="path67469"
       d="m 50.270834,124.35409 c -7.3025,0 -13.229167,5.92667 -13.229167,13.22917 0,7.3025 5.926667,13.22917 13.229167,13.22917 7.3025,0 13.229167,-5.92667 13.229167,-13.22917 0,-7.3025 -5.926667,-13.22917 -13.229167,-13.22917 z m 0,3.96875 c 2.196042,0 3.96875,1.77271 3.96875,3.96875 0,2.19604 -1.772708,3.96875 -3.96875,3.96875 -2.196041,0 -3.96875,-1.77271 -3.96875,-3.96875 0,-2.19604 1.772709,-3.96875 3.96875,-3.96875 z m 0,18.78542 a 9.5250002,9.5250002 0 0 1 -7.9375,-4.25979 c 0.03969,-2.63261 5.291667,-4.07459 7.9375,-4.07459 2.632604,0 7.897813,1.44198 7.9375,4.07459 a 9.5250002,9.5250002 0 0 1 -7.9375,4.25979 z"
       style="fill:#000000;stroke:none;stroke-width:1.32291" />
    <path
       id="path67473"
       d="m 93.806736,31.762028 -12.026447,-0.01203 c -1.322909,0 -2.405289,1.08238 -2.405289,2.405289 v 21.647604 c 0,1.32291 1.08238,2.40529 2.405289,2.40529 h 12.026447 c 1.322908,0 2.405289,-1.08238 2.405289,-2.40529 V 34.15529 c 0,-1.322909 -1.082381,-2.393263 -2.405289,-2.393262 z m 0,21.635578 H 81.780289 V 36.560581 h 12.026447 z"
       style="fill:#000000;stroke:none;stroke-width:1.20264" />
    <path
       id="path67481"
       d="M 140.22916,71.437503 H 129.64583 L 127,68.79167 h -7.9375 c -1.45521,0 -2.63261,1.190625 -2.63261,2.645833 l -0.0132,15.875 c 0,1.455209 1.19063,2.645834 2.64584,2.645834 h 21.16666 c 1.45521,0 2.64584,-1.190625 2.64584,-2.645834 V 74.083337 c 0,-1.455209 -1.19063,-2.645834 -2.64584,-2.645834 z m 0,15.875 H 119.0625 V 74.083337 h 21.16666 z"
       style="fill:#000000;stroke:none;stroke-width:1.32291" />
    <path
       id="path67489"
       d="m 142.14004,199.5562 v 1.46991 c 0,1.6169 -1.32291,2.93981 -2.93981,2.93981 h -20.5787 a 2.9398148,2.9398148 0 0 1 -2.93982,-2.93981 v -20.5787 a 2.9398148,2.9398148 0 0 1 2.93982,-2.93982 h 20.5787 c 1.6169,0 2.93981,1.32292 2.93981,2.93982 v 1.4699 h -13.22916 a 2.9398148,2.9398148 0 0 0 -2.93982,2.93982 v 11.75926 a 2.9398148,2.9398148 0 0 0 2.93982,2.93981 z m -13.22916,-2.93981 h 14.69907 v -11.75926 h -14.69907 z m 5.87963,-3.67477 c -1.22003,0 -2.20486,-0.98484 -2.20486,-2.20486 0,-1.22002 0.98483,-2.20486 2.20486,-2.20486 1.22002,0 2.20486,0.98484 2.20486,2.20486 0,1.22002 -0.98484,2.20486 -2.20486,2.20486 z"
       style="fill:#000000;stroke:none;stroke-width:1.46991" />
    <path
       id="path67493"
       d="m 102.49259,225.77778 v -2.93982 h -2.939818 v -2.93981 c 0,-1.6169 -1.322917,-2.93982 -2.939815,-2.93982 H 76.034253 c -1.616898,0 -2.939814,1.32292 -2.939814,2.93982 v 20.5787 c 0,1.6169 1.322916,2.93981 2.939814,2.93981 h 20.578704 c 1.616898,0 2.939815,-1.32291 2.939815,-2.93981 v -2.93981 h 2.939818 v -2.93982 h -2.939818 v -2.93981 h 2.939818 v -2.93982 h -2.939818 v -2.93981 z m -5.879633,14.69907 H 76.034253 v -20.5787 h 20.578704 z m -17.638889,-8.81944 h 7.349537 v 5.87963 h -7.349537 z m 8.819444,-8.81945 h 5.87963 v 4.40972 h -5.87963 z m -8.819444,0 h 7.349537 v 7.34954 h -7.349537 z m 8.819444,5.87963 h 5.87963 v 8.81945 h -5.87963 z"
       style="fill:#000000;stroke:none;stroke-width:1.46991" />
    <path
       id="path67709"
       d="m 307.50463,54.900965 c 1.81901,0 3.29075,-1.488281 3.29075,-3.307292 l 0.0165,-16.536458 c 0,-1.819011 -1.48828,-3.307292 -3.30729,-3.307292 h -26.45834 c -1.81901,0 -3.30729,1.488281 -3.30729,3.307292 v 16.536458 c 0,1.819011 1.48828,3.307292 3.30729,3.307292 h -6.61458 v 3.307292 h 39.6875 v -3.307292 z m -26.45834,-19.84375 h 26.45834 v 16.536458 h -26.45834 z"
       style="fill:#000000;stroke:none;stroke-width:1.65364" />
    <path
       style="fill:#000000;stroke:none;stroke-width:1.32291"
       d="m 261.20252,71.437503 h -10.58333 l -2.64583,-2.645833 h -7.9375 c -1.45521,0 -2.63261,1.190625 -2.63261,2.645833 l -0.0132,15.875 c 0,1.455209 1.19063,2.645834 2.64584,2.645834 h 21.16666 c 1.45521,0 2.64584,-1.190625 2.64584,-2.645834 V 74.083337 c 0,-1.455209 -1.19063,-2.645834 -2.64584,-2.645834 z m 0,15.875 H 240.03586 V 74.083337 h 21.16666 z"
       id="path67481-1" />
    <path
       style="fill:#000000;stroke:none;stroke-width:1.32291"
       d="m 335.15741,15.875 c -7.3025,0 -13.22917,5.926668 -13.22917,13.229167 0,7.302499 5.92667,13.229165 13.22917,13.229165 7.3025,0 13.22916,-5.926666 13.22916,-13.229165 0,-7.3025 -5.92666,-13.229167 -13.22916,-13.229167 z m 0,3.968751 c 2.19604,0 3.96875,1.772708 3.96875,3.96875 0,2.196041 -1.77271,3.96875 -3.96875,3.96875 -2.19604,0 -3.96875,-1.772709 -3.96875,-3.96875 0,-2.196042 1.77271,-3.96875 3.96875,-3.96875 z m 0,18.785416 a 9.5250003,9.5250003 0 0 1 -7.9375,-4.259792 c 0.0397,-2.632605 5.29166,-4.074584 7.9375,-4.074584 2.6326,0 7.89781,1.441979 7.9375,4.074584 a 9.5250003,9.5250003 0 0 1 -7.9375,4.259792 z"
       id="path67469-0" />
    <text
       transform="translate(295.09369,-5.2916667)"
       id="text65628-6"
       y="17.14831"
       x="39.879742"
       style="font-style:normal;font-variant:normal;font-weight:normal;font-stretch:normal;font-size:8.46667px;line-height:8.5px;font-family:sans-serif;-inkscape-font-specification:'sans-serif, Normal';font-variant-ligatures:normal;font-variant-position:normal;font-variant-caps:normal;font-variant-numeric:normal;font-variant-alternates:normal;font-variant-east-asian:normal;font-feature-settings:normal;font-variation-settings:normal;text-indent:0;text-align:center;text-decoration:none;text-decoration-line:none;text-decoration-style:solid;text-decoration-color:#000000;letter-spacing:0px;word-spacing:0px;text-transform:none;writing-mode:lr-tb;direction:ltr;text-orientation:mixed;dominant-baseline:auto;baseline-shift:baseline;text-anchor:middle;white-space:normal;shape-padding:0;shape-margin:0;inline-size:0;opacity:1;vector-effect:none;fill:#000000;fill-opacity:1;stroke:#000000;stroke-width:0.264583px;stroke-linecap:butt;stroke-linejoin:miter;stroke-miterlimit:4;stroke-dasharray:none;stroke-dashoffset:0;stroke-opacity:1;stop-color:#000000;stop-opacity:1"
       xml:space="preserve"><tspan
         style="font-style:normal;font-variant:normal;font-weight:normal;font-stretch:normal;font-size:8.46667px;line-height:8.5px;font-family:sans-serif;-inkscape-font-specification:'sans-serif, Normal';font-variant-ligatures:normal;font-variant-position:normal;font-variant-caps:normal;font-variant-numeric:normal;font-variant-alternates:normal;font-variant-east-asian:normal;font-feature-settings:normal;font-variation-settings:normal;text-indent:0;text-align:center;text-decoration:none;text-decoration-line:none;text-decoration-style:solid;text-decoration-color:#000000;letter-spacing:0px;word-spacing:0px;text-transform:none;writing-mode:lr-tb;direction:ltr;text-orientation:mixed;dominant-baseline:auto;baseline-shift:baseline;text-anchor:middle;white-space:normal;shape-padding:0;shape-margin:0;inline-size:0;vector-effect:none;fill:#000000;fill-opacity:1;stroke:#000000;stroke-width:0.264583px;stroke-linecap:butt;stroke-linejoin:miter;stroke-miterlimit:4;stroke-dasharray:none;stroke-dashoffset:0;stroke-opacity:1;stop-color:#000000;stop-opacity:1"
         y="17.14831"
         x="39.879742"
         id="tspan65626-1"
         sodipodi:role="line">Bob</tspan></text>
    <text
       xml:space="preserve"
       style="font-size:8.46667px;line-height:8.5px;font-family:sans-serif;-inkscape-font-specification:'sans-serif, Normal';text-align:center;letter-spacing:0px;word-spacing:0px;writing-mode:lr-tb;text-anchor:middle;fill:#000000;fill-opacity:1;stroke:#000000;stroke-width:0.264583px;stroke-linecap:butt;stroke-linejoin:miter;stroke-opacity:1"
       x="294.06668"
       y="17.14831"
       id="text65636-8-5"><tspan
         sodipodi:role="line"
         x="294.06668"
         y="17.14831"
         style="fill:#000000;fill-opacity:1;stroke-width:0.264583px"
         id="tspan65674-2-9">Bob's</tspan><tspan
         id="tspan65717-49"
         sodipodi:role="line"
         x="294.06668"
         y="25.64831"
         style="fill:#000000;fill-opacity:1;stroke-width:0.264583px">PC</tspan></text>
    <text
       id="text65636-0"
       y="56.796406"
       x="250.44145"
       style="font-size:8.46667px;line-height:8.5px;font-family:sans-serif;-inkscape-font-specification:'sans-serif, Normal';text-align:center;letter-spacing:0px;word-spacing:0px;writing-mode:lr-tb;text-anchor:middle;fill:#000000;fill-opacity:1;stroke:#000000;stroke-width:0.264583px;stroke-linecap:butt;stroke-linejoin:miter;stroke-opacity:1"
       xml:space="preserve"><tspan
         style="fill:#000000;fill-opacity:1;stroke-width:0.264583px"
         y="56.796406"
         x="250.44145"
         id="tspan65634-9"
         sodipodi:role="line">Voyage</tspan><tspan
         id="tspan65674-1"
         style="fill:#000000;fill-opacity:1;stroke-width:0.264583px"
         y="65.29641"
         x="250.44145"
         sodipodi:role="line">pictures</tspan></text>
    <path
       style="font-variation-settings:normal;opacity:1;vector-effect:none;fill:none;fill-opacity:1;fill-rule:evenodd;stroke:#000000;stroke-width:0.79375;stroke-linecap:butt;stroke-linejoin:miter;stroke-miterlimit:4;stroke-dasharray:0.79375, 1.5875;stroke-dashoffset:0;stroke-opacity:1;marker-start:url(#marker67862);marker-end:url(#marker67872);stop-color:#000000;stop-opacity:1"
       d="m 142.87503,79.375003 94.52162,10e-7"
       id="path67788"
       inkscape:connector-type="polyline"
       inkscape:connector-curvature="0"
       inkscape:connection-start="#path67481"
       inkscape:connection-end="#path67481-1" />
    <path
       style="fill:none;fill-rule:evenodd;stroke:#000000;stroke-width:0.264583px;stroke-linecap:butt;stroke-linejoin:miter;stroke-opacity:1"
       d="M 260.6937,71.437503 277.48461,58.208257"
       id="path67790"
       inkscape:connector-type="polyline"
       inkscape:connector-curvature="0"
       inkscape:connection-start="#path67481-1"
       inkscape:connection-end="#path67709" />
    <path
       style="font-variation-settings:normal;opacity:1;vector-effect:none;fill:none;fill-opacity:1;fill-rule:evenodd;stroke:#000000;stroke-width:0.79375;stroke-linecap:butt;stroke-linejoin:miter;stroke-miterlimit:4;stroke-dasharray:0.79375, 1.5875;stroke-dashoffset:0;stroke-opacity:1;marker-start:url(#marker68005);marker-end:url(#marker68015);stop-color:#000000;stop-opacity:1"
       d="M 141.95001,179.41017 239.252,89.839072"
       id="path67934"
       inkscape:connector-type="polyline"
       inkscape:connector-curvature="0"
       inkscape:connection-start="#path67489"
       inkscape:connection-end="#path67481-1" />
  </g>
</svg>
